Format : AVI
Format/Info : Audio Video Interleave
File size : 996 MiB
Duration : 1h 43mn
Overall bit rate : 1 351 Kbps
Writing library : VirtualDub build 32842/release

Video
ID : 0
Format : MPEG-4 Visual
Format profile : Advanced Simple@L5
Format settings, BVOP : 2
Format settings, QPel : No
Format settings, GMC : No warppoints
Format settings, Matrix : Default (H.263)
Muxing mode : Packed bitstream
Codec ID : XVID
Codec ID/Hint : XviD
Duration : 1h 43mn
Bit rate : 1 211 Kbps
Width : 720 pixels
Height : 278 pixels
Display aspect ratio : 2.590
Frame rate : 25.000 fps
Color space : YUV
Chroma subsampling : 4:2:0
Bit depth : 8 bits
Scan type : Progressive
Compression mode : Lossy
Bits/(Pixel*Frame) : 0.242
Stream size : 893 MiB (90%)
Writing library : XviD 64

Audio
ID : 1
Format : MPEG Audio
Format version : Version 1
Format profile : Layer 3
Codec ID : 55
Codec ID/Hint : MP3
Duration : 1h 43mn
Bit rate mode : Constant
Bit rate : 128 Kbps
Channel(s) : 2 channels
Sampling rate : 44.1 KHz
Compression mode : Lossy
Stream size : 94.4 MiB (9%)
Alignment : Aligned on interleaves
Interleave, duration : 26 ms (0.65 video frame)
Interleave, preload duration : 522 ms

 
http://www.imdb.com/title/tt1324999/


Ratings: 4.2/10 from 8,546 users Metascore: 45/100
Reviews: 137 user | 66 critic | 31 from Metacritic.com

The Quileute and the Volturi close in on expecting parents Edward and Bella, whose unborn child poses different threats to the wolf pack and vampire coven.
Director:
Bill Condon
Writers:
Melissa Rosenberg (screenplay), Stephenie Meyer (novel)
Stars:
Kristen Stewart, Robert Pattinson and Taylor
 
http://img259.imageshack.us/img259/2465/vlcsnap2011112009h37m05.png
 
http://img593.imageshack.us/img593/7445/vlcsnap2011112009h51m11.png
 
http://img6.imageshack.us/img6/8137/vlcsnap2011112009h49m26.png
 
http://img33.imageshack.us/img33/4854/vlcsnap2011112010h52m39.png
